# xmcd CD database file
#
# Track frame offsets:
#	150
#	25462
#	40240
#	58672
#
# Disc length: 1116 seconds
#
# Revision: 0
# Processed by: cddbd v1.5.1PL0 Copyright (c) Steve Scherf et al.
# Submitted via: CDex 1.51
#
DISCID=30045a04
DTITLE=SING LIKE TALKING - My True Colors
DYEAR=2001
DGENRE=JPop
TTITLE0=My True Colors
TTITLE1=悲しきHumming Bird
TTITLE2=宙
TTITLE3=My True Colors （Instrumental)
EXTD=YEAR: 2001
EXTT0=
EXTT1=
EXTT2=
EXTT3=
PLAYORDER=
